# xmcd
#
# Track frame offsets: 
#        150
#        15793
#        31534
#        54446
#        89564
#        112838
#        128390
#        148398
#        174814
#
# Disc length: 2942 seconds
#
# Revision: 0
# Processed by: cddbd v1.4PL0 Copyright (c) Steve Scherf et al.
# Submitted via: ExactAudioCopy v0.90b4
#
DISCID=5d0b7c09
DTITLE=Van Morrison - Philipshalle Düsseldorf Dec 19, 1998 - Disk 1
DYEAR=1998
DGENRE=Blues
TTITLE0=Jackie Wilson Said
TTITLE1=These Dreams
TTITLE2=Rain Check
TTITLE3=Moondance - My Funny Valentine
TTITLE4=Rough Gods Goes Riding
TTITLE5=Give Me A Kiss
TTITLE6=That's Life
TTITLE7=Naked In The Jungle
TTITLE8=In The Afternoon
EXTD=
EXTT0=
EXTT1=
EXTT2=
EXTT3=
EXTT4=
EXTT5=
EXTT6=
EXTT7=
EXTT8=
PLAYORDER=
